<svg xmlns="http://www.w3.org/2000/svg" width="86.563" height="63.094" viewBox="0 0 86.563 63.094">
  <defs>
    <style>
      .cls-1 {
        fill: #202020;
        opacity: 0.15;
      }

      .cls-1, .cls-10, .cls-2, .cls-3, .cls-4, .cls-6, .cls-7, .cls-8, .cls-9 {
        fill-rule: evenodd;
      }

      .cls-2 {
        fill: #ededed;
      }

      .cls-3 {
        fill: #dfdfdf;
      }

      .cls-4 {
        fill: #b2b2b2;
      }

      .cls-5 {
        fill: #fff;
      }

      .cls-6 {
        fill: #eaeaea;
      }

      .cls-7 {
        fill: #f6f6f6;
      }

      .cls-8 {
        fill: #e4e4e4;
      }

      .cls-9 {
        fill: #4e5e6d;
      }

      .cls-10 {
        fill: #48b8d8;
      }
    </style>
  </defs>
  <path id="Shape_526_copy" data-name="Shape 526 copy" class="cls-1" d="M809.171,142.691l24.636-22.58,6.521,1.457L825.836,145.6Zm-22.463-16.024,9.971-8.469-4.9-1-10.144,7.284Zm-7.97-2.914s10.959,2.841,30.433,12.383,23.644,10.663,28.81,15.3c6.424,5.762,6.339,9.306,4.521,11.655s-10.875.221-16.666-2.914-36.468-20.141-42.751-26.951S778.738,123.753,778.738,123.753ZM783,120s0.62,10.559,14,20,32.491,20.733,40,23-4-1-4-1-28.306-9.536-43-22c-13.96-11.842-16-16-16-16Zm48,36s1.509,1.064,5,0a20.784,20.784,0,0,0,6-3l1,3a10.435,10.435,0,0,1-7,3c-4.775.363-7-2-7-2Zm-74-4.568,4.348,5.827,56.518-1.456a49.135,49.135,0,0,0-7.246-6.828,20.42,20.42,0,0,0-9.971-3.642Zm3.623-24.037,2.174,2.914h23.187l-7.246-5.1ZM774.839,106l3.623,18.21a16.252,16.252,0,0,0,6.072,3.913c3.325,1.007,5.073,0,5.073,0l-9.42-18.209ZM791,133l34,20v2l-34-21v-1Z" transform="translate(-757 -101)"/>
  <g>
    <path class="cls-2" d="M807,161s-2.23.288-7.246-3.642-2.948-6.809,0-7.284a14.783,14.783,0,0,1,5.072,0s7.965,4.928,5.072,8.741C808.339,160.884,807,161,807,161Z" transform="translate(-757 -101)"/>
    <path class="cls-3" d="M797,150s2.506,6.095,7,7a12.928,12.928,0,0,1,7,4H801l-6-8Z" transform="translate(-757 -101)"/>
    <path class="cls-4" d="M808.691,154.612c1.131,0.4,1.615,1.961,1.079,3.477s-1.887,2.419-3.018,2.015-1.615-1.961-1.079-3.477S807.56,154.209,808.691,154.612Z" transform="translate(-757 -101)"/>
    <circle class="cls-5" cx="49" cy="55" r="2"/>
  </g>
  <g id="Group_98_copy" data-name="Group 98 copy">
    <path class="cls-2" d="M835,146s-2.23.288-7.246-3.642-2.948-6.809,0-7.284a14.783,14.783,0,0,1,5.072,0s7.965,4.928,5.072,8.741C836.339,145.884,835,146,835,146Z" transform="translate(-757 -101)"/>
    <path class="cls-3" d="M825,135s2.506,6.095,7,7a12.928,12.928,0,0,1,7,4H829l-6-8Z" transform="translate(-757 -101)"/>
    <path class="cls-4" d="M836.691,139.612c1.131,0.4,1.614,1.961,1.079,3.477s-1.887,2.419-3.018,2.015-1.615-1.961-1.079-3.477S835.56,139.209,836.691,139.612Z" transform="translate(-757 -101)"/>
    <circle class="cls-5" cx="77" cy="40" r="2"/>
  </g>
  <path class="cls-6" d="M809.171,137.691l24.636-22.58,6.521,1.457L825.836,140.6Z" transform="translate(-757 -101)"/>
  <path class="cls-6" d="M786.708,121.667l9.971-8.469-4.9-1-10.144,7.284Z" transform="translate(-757 -101)"/>
  <path class="cls-7" d="M778.738,118.753s10.959,2.842,30.433,12.383,23.644,10.663,28.81,15.3c6.424,5.762,6.339,9.306,4.521,11.655s-10.875.221-16.666-2.914-36.468-20.141-42.751-26.951S778.738,118.753,778.738,118.753Z" transform="translate(-757 -101)"/>
  <path class="cls-8" d="M783,115s0.62,10.559,14,20,32.491,20.733,40,23,5,4,5,4-47.661-9.893-58-25-10-18-10-18Z" transform="translate(-757 -101)"/>
  <path class="cls-9" d="M831,151s1.509,1.065,5,0a20.784,20.784,0,0,0,6-3l1,3a10.435,10.435,0,0,1-7,3c-4.775.363-7-2-7-2Z" transform="translate(-757 -101)"/>
  <path class="cls-7" d="M757,146.432l4.348,5.827,56.518-1.456a49.135,49.135,0,0,0-7.246-6.828,20.42,20.42,0,0,0-9.971-3.642Z" transform="translate(-757 -101)"/>
  <path class="cls-7" d="M760.623,122.4l2.174,2.914h23.187l-7.246-5.1Z" transform="translate(-757 -101)"/>
  <path class="cls-7" d="M774.839,101l3.623,18.21a16.262,16.262,0,0,0,6.072,3.914c3.325,1.006,5.073,0,5.073,0l-9.42-18.21Z" transform="translate(-757 -101)"/>
  <path class="cls-10" d="M791,128l34,20v2l-34-21v-1Z" transform="translate(-757 -101)"/>
</svg>
