<svg id="Apple" xmlns="http://www.w3.org/2000/svg" width="48.938" height="60" viewBox="0 0 48.938 60">
  <defs>
    <style>
      .cls-1 {
        fill: #e14236;
      }

      .cls-1, .cls-2, .cls-3, .cls-4, .cls-5 {
        fill-rule: evenodd;
      }

      .cls-2 {
        fill: #a12a2a;
      }

      .cls-3 {
        fill: #c32f2f;
        opacity: 0.5;
      }

      .cls-4 {
        fill: #8d8277;
      }

      .cls-5 {
        fill: #89ba2a;
      }
    </style>
  </defs>
  <path class="cls-1" d="M543.279,1424.76s-33.725-9.03-23.278,25.21,23.278,20.17,23.278,20.17,14.746,13.39,22.448-20.17S543.279,1424.76,543.279,1424.76Z" transform="translate(-518.031 -1413)"/>
  <path class="cls-2" d="M542.864,1426.44c5.28,0,9.561,1.51,9.561,3.37s-4.281,3.36-9.561,3.36-9.561-1.51-9.561-3.36S537.583,1426.44,542.864,1426.44Z" transform="translate(-518.031 -1413)"/>
  <path id="Ellipse_38_copy" data-name="Ellipse 38 copy" class="cls-3" d="M542.448,1425.6c7.347,0,13.3,1.89,13.3,4.21s-5.955,4.2-13.3,4.2-13.3-1.88-13.3-4.2S535.1,1425.6,542.448,1425.6Z" transform="translate(-518.031 -1413)"/>
  <path class="cls-4" d="M540.785,1430.65s1.771-6.09-1.662-9.25a11.937,11.937,0,0,0-6.652-3.36L535.8,1413s6.252,1.41,8.314,7.56,0,10.09,0,10.09h-3.326Z" transform="translate(-518.031 -1413)"/>
  <path class="cls-5" d="M541.617,1428.97s-1.472-4.24,7.482-9.25,14.134-2.52,14.134-2.52-0.616,6.68-8.314,10.92S541.617,1428.97,541.617,1428.97Z" transform="translate(-518.031 -1413)"/>
</svg>
