<svg id="Cacao" xmlns="http://www.w3.org/2000/svg" width="81.406" height="86.438" viewBox="0 0 81.406 86.438">
  <defs>
    <style>
      .cls-1 {
        fill: #b98556;
        stroke: #cc9766;
      }

      .cls-1, .cls-6, .cls-8 {
        stroke-linejoin: round;
      }

      .cls-1, .cls-6 {
        stroke-width: 3px;
      }

      .cls-1, .cls-2, .cls-3, .cls-4, .cls-7, .cls-8 {
        fill-rule: evenodd;
      }

      .cls-2 {
        fill: #97683e;
      }

      .cls-3 {
        fill: #fffdf7;
      }

      .cls-4 {
        fill: #b4b2ab;
      }

      .cls-5 {
        fill: #fff;
      }

      .cls-6 {
        fill: #7f4733;
        stroke: #623424;
      }

      .cls-7 {
        fill: #8d513c;
      }

      .cls-8 {
        fill: #e3ae9c;
        stroke: #000;
        stroke-opacity: 0.32;
        stroke-width: 2px;
        opacity: 0.6;
      }
    </style>
  </defs>
  <g>
    <path id="Rounded_Rectangle_104" data-name="Rounded Rectangle 104" class="cls-1" d="M535.471,927.7l10.159,14.859a10.875,10.875,0,1,1-17.955,12.276l-10.159-14.859A10.875,10.875,0,0,1,535.471,927.7Z" transform="translate(-499.594 -878)"/>
    <path class="cls-2" d="M531.756,930.24a2.625,2.625,0,1,1-3.648-.686A2.623,2.623,0,0,1,531.756,930.24Z" transform="translate(-499.594 -878)"/>
    <path id="Ellipse_99_copy_2" data-name="Ellipse 99 copy 2" class="cls-2" d="M541.915,945.1a2.625,2.625,0,1,1-3.648-.685A2.625,2.625,0,0,1,541.915,945.1Z" transform="translate(-499.594 -878)"/>
    <path id="Ellipse_99_copy_3" data-name="Ellipse 99 copy 3" class="cls-2" d="M524.946,934.9a2.625,2.625,0,1,1-3.649-.685A2.626,2.626,0,0,1,524.946,934.9Z" transform="translate(-499.594 -878)"/>
    <path id="Ellipse_99_copy_4" data-name="Ellipse 99 copy 4" class="cls-2" d="M535.105,949.755a2.625,2.625,0,1,1-3.648-.685A2.626,2.626,0,0,1,535.105,949.755Z" transform="translate(-499.594 -878)"/>
  </g>
  <g id="Group_158_copy" data-name="Group 158 copy">
    <path id="Rounded_Rectangle_104-2" data-name="Rounded Rectangle 104" class="cls-1" d="M519.657,931.641l12.728,12.728a10.875,10.875,0,1,1-15.379,15.379L504.278,947.02A10.875,10.875,0,0,1,519.657,931.641Z" transform="translate(-499.594 -878)"/>
    <path class="cls-2" d="M516.475,934.823a2.625,2.625,0,1,1-3.712,0A2.625,2.625,0,0,1,516.475,934.823Z" transform="translate(-499.594 -878)"/>
    <path id="Ellipse_99_copy_2-2" data-name="Ellipse 99 copy 2" class="cls-2" d="M529.2,947.551a2.625,2.625,0,1,1-3.712,0A2.625,2.625,0,0,1,529.2,947.551Z" transform="translate(-499.594 -878)"/>
    <path id="Ellipse_99_copy_3-2" data-name="Ellipse 99 copy 3" class="cls-2" d="M510.642,940.656a2.625,2.625,0,1,1-3.713,0A2.626,2.626,0,0,1,510.642,940.656Z" transform="translate(-499.594 -878)"/>
    <path id="Ellipse_99_copy_4-2" data-name="Ellipse 99 copy 4" class="cls-2" d="M523.37,953.384a2.625,2.625,0,1,1-3.713,0A2.626,2.626,0,0,1,523.37,953.384Z" transform="translate(-499.594 -878)"/>
  </g>
  <g>
    <path class="cls-3" d="M571.593,919.874s9.434,6.03,9.394,11.158c-0.007.96-1.312,2.853-2.023,3.621-0.961,1.037-2.181,2.409-3.505,2.353-4.9-.208-11.236-7.279-11.236-7.279Z" transform="translate(-499.594 -878)"/>
    <path class="cls-4" d="M566.68,933.421c0.225-.577,4.08-1.218,7.37-7.389s0-7.389,0-7.389l-8.6,1.231-3.685,7.389,4.914,6.158" transform="translate(-499.594 -878)"/>
    <circle class="cls-5" cx="48.656" cy="28.328" r="28.25"/>
    <circle id="Ellipse_97_copy" data-name="Ellipse 97 copy" class="cls-6" cx="49.281" cy="28.938" r="22.719"/>
    <path class="cls-7" d="M533.513,926.032s-12.309-12.862,7.37-18.474,25.643-13.526,20.883-20.937-15.71-12.015-25.8-3.695-16.716,23.168-13.512,30.79,11.056,13.547,11.056,13.547v-1.231Z" transform="translate(-499.594 -878)"/>
    <path class="cls-8" d="M534.741,910.021s0.707-4.157,3.685-2.463,8.125-2.979,8.6,1.232c0.807,7.167-3.546,2.281-6.142,4.926C537.522,917.14,535.512,913.113,534.741,910.021Zm12.284-11.084s0.212-8.418,3.685-6.158c6.054,3.939,9.886-2.916,9.827,3.7-0.026,3.014-4.984,5.732-4.759,3.478C556.209,895.653,550.295,900.693,547.025,898.937Z" transform="translate(-499.594 -878)"/>
  </g>
</svg>
