<svg id="Cafe" xmlns="http://www.w3.org/2000/svg" width="65.532" height="88.16" viewBox="0 0 65.532 88.16">
  <defs>
    <style>
      .cls-1 {
        fill: #fff;
      }

      .cls-1, .cls-2, .cls-3 {
        fill-rule: evenodd;
      }

      .cls-2 {
        fill: #e8e8e8;
      }

      .cls-3 {
        fill: #d54e2a;
      }
    </style>
  </defs>
  <path id="_1" data-name="1" class="cls-1" d="M667.2,1665.84l-1.783,18.79h-2.359l-0.892-18.79h-2.937l-0.891,18.79h-2.365l-1.783-18.79h-2.93l-0.007,22.04c0.012,2.59,2.118,5.13,4.72,5.13l0,26.84v4.69a2.354,2.354,0,0,0,2.36,2.35h4.72a2.352,2.352,0,0,0,2.359-2.35v-18.78s0,0,0-.01v-12.74a4.712,4.712,0,0,0,4.72-4.7l0,2.35v-24.82H667.2Zm-15.947,23.52v0Zm33.044-23.52-7.08.36v34.3l4.72,1.78v22.26a2.355,2.355,0,0,0,2.36,2.35h4.72a2.349,2.349,0,0,0,2.355-2.35v-51.65a7.057,7.057,0,0,0-7.075-7.05" transform="translate(-638.781 -1655.84)"/>
  <path class="cls-2" d="M689.594,1655.86l7.99,0.73-8,87.42-7.99-.73Z" transform="translate(-638.781 -1655.84)"/>
  <path class="cls-3" d="M638.77,1712.63H704.3v23.17H638.77v-23.17Z" transform="translate(-638.781 -1655.84)"/>
</svg>
