<svg xmlns="http://www.w3.org/2000/svg" width="93" height="50" viewBox="0 0 93 50">
  <defs>
    <style>
      .cls-1, .cls-8 {
        fill: #2a2828;
      }

      .cls-1, .cls-2, .cls-9 {
        fill-rule: evenodd;
      }

      .cls-2 {
        fill: #413c44;
      }

      .cls-3, .cls-6 {
        fill: #2e2a30;
      }

      .cls-4 {
        fill: #43384a;
      }

      .cls-5 {
        fill: #332c38;
      }

      .cls-6 {
        opacity: 0.4;
      }

      .cls-7, .cls-9 {
        fill: #514459;
      }

      .cls-10 {
        fill: #3b3240;
      }

      .cls-11 {
        fill: #1c1a1d;
        opacity: 0.8;
      }

      .cls-12 {
        fill: #6f6575;
      }
    </style>
  </defs>
  <path id="Rounded_Rectangle_51" data-name="Rounded Rectangle 51" class="cls-1" d="M944,123h14c2.761,0,3,2.239,3,5s-0.239,5-3,5H944A5,5,0,0,1,944,123Z" transform="translate(-880 -116)"/>
  <path id="Rounded_Rectangle_50" data-name="Rounded Rectangle 50" class="cls-2" d="M935,126h4a2,2,0,0,1,0,4h-4A2,2,0,0,1,935,126Z" transform="translate(-880 -116)"/>
  <rect class="cls-3" x="54" y="7" width="4" height="9"/>
  <rect id="Rounded_Rectangle_45" data-name="Rounded Rectangle 45" class="cls-4" x="4" y="4" width="53" height="30" rx="5" ry="5"/>
  <rect class="cls-5" width="11" height="46"/>
  <rect class="cls-5" x="9" y="20" width="48" height="4"/>
  <rect id="Rounded_Rectangle_47" data-name="Rounded Rectangle 47" class="cls-4" x="61" y="25" width="20" height="14" rx="5" ry="5"/>
  <rect class="cls-6" x="64" y="23" width="5" height="20"/>
  <rect id="Rounded_Rectangle_46" data-name="Rounded Rectangle 46" class="cls-7" x="7" y="22" width="59" height="21" rx="5" ry="5"/>
  <rect id="Rounded_Rectangle_52" data-name="Rounded Rectangle 52" class="cls-8" x="18" y="20" width="30" height="14" rx="5" ry="5"/>
  <path id="Rounded_Rectangle_48" data-name="Rounded Rectangle 48" class="cls-9" d="M965,137c2.761,0,3,2.239,3,5v12c0,2.762-.239,5-3,5s-7-2.238-7-5V142C958,139.239,962.239,137,965,137Z" transform="translate(-880 -116)"/>
  <rect class="cls-10" x="76" y="21" width="4" height="23"/>
  <rect class="cls-11" x="86" y="17" width="7" height="33"/>
  <rect id="Rounded_Rectangle_49" data-name="Rounded Rectangle 49" class="cls-4" x="10" y="33" width="51" height="14" rx="5" ry="5"/>
  <rect class="cls-12" x="23" y="37" width="20" height="6"/>
  <circle class="cls-12" cx="43.5" cy="15.5" r="1.5"/>
  <circle id="Ellipse_70_copy" data-name="Ellipse 70 copy" class="cls-12" cx="48.5" cy="15.5" r="1.5"/>
</svg>
