<svg id="_8" data-name="8" xmlns="http://www.w3.org/2000/svg" width="68" height="85" viewBox="0 0 68 85">
  <defs>
    <style>
      .cls-1 {
        fill: #db3e58;
      }

      .cls-1, .cls-2, .cls-3, .cls-4, .cls-5, .cls-6 {
        fill-rule: evenodd;
      }

      .cls-2 {
        fill: #fff;
        opacity: 0.2;
      }

      .cls-3 {
        fill: #ffecde;
      }

      .cls-4 {
        fill: #51d8ff;
      }

      .cls-5 {
        fill: #48b8d8;
      }

      .cls-6 {
        opacity: 0.25;
      }
    </style>
  </defs>
  <g>
    <path class="cls-1" d="M388,690.9l20-55.782s4.217-16.2,26.247-11.157c19.057,4.362,9.749,28.709,9.749,28.709s-2.6,6.409-7.749,3.719c-5.631-2.94-1.5-8.677-1.5-8.677s4.081-11.767-4.249-13.834c-9.6-2.38-12.5,4.959-12.5,4.959l-18.748,55.781s-1.237,7.184-7.5,4.959C384.846,697.121,388,690.9,388,690.9Z" transform="translate(-383 -615)"/>
    <path class="cls-2" d="M389,700l25-65s3.854-10.148,17-6,11.689,13.46,6,28,2.443,13.228,10,1,1.08-27.99,1-30-14.612-11.969-16-12-15-1-15-1-14.722,5.044-15,6-8,21-8,21l-11,45v13h6Z" transform="translate(-383 -615)"/>
    <path id="Shape_581_copy_4" data-name="Shape 581 copy 4" class="cls-3" d="M383,693.376h20l3.749-7.438h-20Zm6.249-13.636h20L413,672.3H393Zm5-13.635h20l3.75-7.438H398Zm5.249-14.636,21,2,3.749-6.437-21-3Zm4.185-13.756,19.6,3.949,2.215-5.307-16.645-5.19Zm13.063-16.234L423,636.355l6.25,1.239L426.745,619ZM451.015,652.1l-18.488-4.008,0.853-5.588,16.642,1.481Zm-2.674-20.245-14.327,5.884-2.136-3.325,9.329-9.661Z" transform="translate(-383 -615)"/>
  </g>
  <path class="cls-4" d="M401.5,654.267l-2.735,8.042,8.889,2.01,3.418-8.041Z" transform="translate(-383 -615)"/>
  <path id="Shape_584_copy" data-name="Shape 584 copy" class="cls-5" d="M407.65,657.618s8.825-5.105,11.624.67S415.855,667,415.855,667s-7.194-.565-8.889-4.021S407.65,657.618,407.65,657.618Zm-4.409-1.563s-6.138-8.035-10.992-3.818-0.272,9.273-.272,9.273,6.862,2.225,9.786-.29S403.241,656.055,403.241,656.055Z" transform="translate(-383 -615)"/>
  <path id="Shape_585_copy" data-name="Shape 585 copy" class="cls-6" d="M406.966,661.639c0.032-.038,10.9-4.073,10.256-0.67s-0.84,5.563-4.786,4.021S406.934,661.677,406.966,661.639Zm-4.676-1.645c-0.014-.047-8.461-7.882-9.2-4.523s-1.413,5.409,2.836,5.5S402.305,660.041,402.29,659.994Z" transform="translate(-383 -615)"/>
</svg>
