<svg id="Cheese" xmlns="http://www.w3.org/2000/svg" width="68.875" height="61.56" viewBox="0 0 68.875 61.56">
  <defs>
    <style>
      .cls-1 {
        fill: #ffdb35;
      }

      .cls-1, .cls-2, .cls-3, .cls-4, .cls-5, .cls-6 {
        fill-rule: evenodd;
      }

      .cls-2 {
        fill: #d0b432;
      }

      .cls-3 {
        fill: #d2b329;
      }

      .cls-4 {
        fill: #867420;
      }

      .cls-5 {
        fill: #cdaf29;
      }

      .cls-6 {
        fill: #b49b26;
      }
    </style>
  </defs>
  <path class="cls-1" d="M401.649,1418l-18.907,47.95,44.919,2.7,18.967-48.95Z" transform="translate(-382.75 -1415.72)"/>
  <path class="cls-2" d="M413.807,1415.72c3.308,0.2,5.909,1.7,5.81,3.36s-2.862,2.83-6.169,2.63-5.909-1.7-5.81-3.35S410.5,1415.53,413.807,1415.72Zm-17.489,15.99a6.015,6.015,0,1,1-6.847,5.6A6.259,6.259,0,0,1,396.318,1431.71Zm-7.247,20.6c2.481,0.15,4.4,1.83,4.282,3.76s-2.22,3.37-4.7,3.23-4.4-1.84-4.283-3.77S386.59,1452.16,389.071,1452.31Z" transform="translate(-382.75 -1415.72)"/>
  <path class="cls-3" d="M446.628,1419.7l1.058,49.15-20.324,4.79-0.579-7.05Z" transform="translate(-382.75 -1415.72)"/>
  <path class="cls-4" d="M439.061,1462.32c3.308,0.2,5.788,3.71,5.54,7.85s-3.131,7.32-6.438,7.12-5.789-3.71-5.54-7.84S435.753,1462.12,439.061,1462.32Zm8.405-31.55c2.481,0.15,4.345,2.73,4.163,5.76s-2.341,5.37-4.822,5.22-4.344-2.73-4.162-5.76S444.985,1430.62,447.466,1430.77Z" transform="translate(-382.75 -1415.72)"/>
  <path class="cls-5" d="M382.8,1464.96l1.577,7.1,42.923,2.58,0.419-6.99Z" transform="translate(-382.75 -1415.72)"/>
  <path class="cls-6" d="M405.122,1460.28c5.513,0.34,9.808,3.51,9.593,7.09s-4.859,6.22-10.372,5.89-9.807-3.5-9.592-7.09S399.609,1459.95,405.122,1460.28Zm4.093-34.81a1.561,1.561,0,1,1-2.086,1.37A1.8,1.8,0,0,1,409.215,1425.47Zm19.705-2.83c3.032,0.18,5.409,1.67,5.31,3.33s-2.638,2.84-5.67,2.66-5.409-1.67-5.31-3.32S425.888,1422.46,428.92,1422.64Zm-11.879,14.32c4.686,0.28,8.337,2.96,8.155,6s-4.128,5.26-8.814,4.98-8.337-2.97-8.155-6S412.355,1436.68,417.041,1436.96Zm16.49,9a5.027,5.027,0,1,1-4.791,4.72A4.768,4.768,0,0,1,433.531,1445.96Z" transform="translate(-382.75 -1415.72)"/>
</svg>
