<svg id="Clock" xmlns="http://www.w3.org/2000/svg" width="63.75" height="63.69" viewBox="0 0 63.75 63.69">
  <defs>
    <style>
      .cls-1 {
        fill: #ffd83b;
      }

      .cls-1, .cls-2, .cls-3 {
        fill-rule: evenodd;
      }

      .cls-2 {
        fill: #fff;
      }

      .cls-3 {
        fill: #d54679;
      }
    </style>
  </defs>
  <path class="cls-1" d="M301.548,1664.06a29.635,29.635,0,1,1-29.643,29.63A29.64,29.64,0,0,1,301.548,1664.06Z" transform="translate(-270.563 -1663.19)"/>
  <path id="_4" data-name="4" class="cls-2" d="M302.44,1671.14a23.89,23.89,0,1,1-23.9,23.89,23.923,23.923,0,0,1,23.9-23.89m0-7.97a31.855,31.855,0,1,0,31.866,31.86,31.867,31.867,0,0,0-31.866-31.86m12.867,42.34a7.153,7.153,0,0,1-3.307-.68l-12.373-6.98a3.96,3.96,0,0,1-1.17-2.81h0v-0.01l-3.431-13.97a3.983,3.983,0,0,1,7.966,0l3.431,12.32,11.212,5.82a3.418,3.418,0,0,1,0,5.14,2.957,2.957,0,0,1-2.328,1.17" transform="translate(-270.563 -1663.19)"/>
  <path class="cls-3" d="M302.663,1690.8a3.565,3.565,0,1,1-3.566,3.56A3.561,3.561,0,0,1,302.663,1690.8Zm-0.158,5.31-1.692-1.45,13.6-15.86,1.693,1.45Z" transform="translate(-270.563 -1663.19)"/>
</svg>
