<svg id="Deer" xmlns="http://www.w3.org/2000/svg" width="77" height="81.375" viewBox="0 0 77 81.375">
  <defs>
    <style>
      .cls-1 {
        fill: #5d4733;
      }

      .cls-1, .cls-2, .cls-3, .cls-4, .cls-5, .cls-6, .cls-8 {
        fill-rule: evenodd;
      }

      .cls-2 {
        fill: #553f2c;
      }

      .cls-3 {
        fill: #b98556;
      }

      .cls-4, .cls-5 {
        fill: #9c7048;
      }

      .cls-5 {
        fill-opacity: 0;
        stroke: #c7a07e;
        stroke-linejoin: round;
        stroke-width: 2px;
        opacity: 0.3;
      }

      .cls-6 {
        fill: #7a5737;
      }

      .cls-7 {
        fill: #9a2b38;
      }

      .cls-8 {
        fill: #27272f;
      }
    </style>
  </defs>
  <path class="cls-1" d="M429,788s18.569,15.433,23,24-1.1,22.883-17,20-19-28-19-28Z" transform="translate(-378 -751)"/>
  <path class="cls-2" d="M435,786s8,23-5,34-27,3-27,3l2-24Z" transform="translate(-378 -751)"/>
  <path id="Rounded_Rectangle_94" data-name="Rounded Rectangle 94" class="cls-3" d="M398,771l8,1c2.349,0,2.179,3.63,2.179,5.964S405.349,779,403,779l-9.284,3.191a4.24,4.24,0,0,1-4.253-4.227C389.463,775.63,395.651,771,398,771Z" transform="translate(-378 -751)"/>
  <path id="Rounded_Rectangle_94_copy" data-name="Rounded Rectangle 94 copy" class="cls-3" d="M436.412,771l-8.053.983c-2.365,0-2.193,3.57-2.193,5.865s2.848,1.018,5.213,1.018L440.724,782a4.22,4.22,0,0,0,4.282-4.155C445.006,775.553,438.777,771,436.412,771Z" transform="translate(-378 -751)"/>
  <path id="Rounded_Rectangle_99" data-name="Rounded Rectangle 99" class="cls-1" d="M409.328,762.905a1.7,1.7,0,0,1,1.7,1.69v8.453a1.7,1.7,0,0,1-3.4,0V764.6A1.7,1.7,0,0,1,409.328,762.905Zm-21.268-.381h21.268a1.691,1.691,0,1,1,0,3.381H388.06A1.691,1.691,0,1,1,388.06,762.524ZM387.358,751a1.7,1.7,0,0,1,1.7,1.691v11.833a1.7,1.7,0,0,1-3.4,0V752.691A1.7,1.7,0,0,1,387.358,751Zm-7.656,5.071h5.955a1.691,1.691,0,1,1,0,3.381H379.7A1.691,1.691,0,1,1,379.7,756.071Zm17.716-2.845a1.7,1.7,0,0,1,1.7,1.691v8.452a1.7,1.7,0,0,1-3.4,0v-8.452A1.7,1.7,0,0,1,397.418,753.226Z" transform="translate(-378 -751)"/>
  <path id="Rounded_Rectangle_99_copy" data-name="Rounded Rectangle 99 copy" class="cls-1" d="M423.7,763.03a1.7,1.7,0,0,0-1.7,1.708v8.542a1.7,1.7,0,1,0,3.4,0v-8.542A1.7,1.7,0,0,0,423.7,763.03Zm21.249-.385H423.7a1.709,1.709,0,0,0,0,3.417H444.95A1.709,1.709,0,0,0,444.95,762.645Zm0.7-11.645a1.7,1.7,0,0,0-1.7,1.708v11.958a1.7,1.7,0,1,0,3.4,0V752.708A1.7,1.7,0,0,0,445.651,751Zm7.649,5.125h-5.949a1.708,1.708,0,0,0,0,3.416H453.3A1.708,1.708,0,0,0,453.3,756.125Zm-17.7-2.875a1.7,1.7,0,0,0-1.7,1.708V763.5a1.7,1.7,0,1,0,3.4,0v-8.541A1.7,1.7,0,0,0,435.6,753.25Z" transform="translate(-378 -751)"/>
  <path id="Rounded_Rectangle_93" data-name="Rounded Rectangle 93" class="cls-4" d="M405.627,770.357h22.119A4.24,4.24,0,0,1,432,774.583l-4,37.191A4.24,4.24,0,0,1,423.746,816H409.627a4.24,4.24,0,0,1-4.254-4.226l-4-37.191A4.24,4.24,0,0,1,405.627,770.357Z" transform="translate(-378 -751)"/>
  <path id="Rounded_Rectangle_93_copy" data-name="Rounded Rectangle 93 copy" class="cls-5" d="M407.627,772.357h18.119A4.24,4.24,0,0,1,430,776.583l-3,33.191A4.24,4.24,0,0,1,422.746,814H410.627a4.24,4.24,0,0,1-4.254-4.226l-3-33.191A4.24,4.24,0,0,1,407.627,772.357Z" transform="translate(-378 -751)"/>
  <path class="cls-6" d="M408,817s0.873-5,8.5-5c7.889,0,8.5,5,8.5,5H408Z" transform="translate(-378 -751)"/>
  <circle class="cls-7" cx="38.5" cy="55.5" r="3.5"/>
  <path class="cls-8" d="M409.03,781.345c2.471,0,2.552,4.136,2.552,5.536a2.552,2.552,0,0,1-5.1,0C406.478,785.481,406.134,781.345,409.03,781.345Z" transform="translate(-378 -751)"/>
  <path id="Ellipse_91_copy" data-name="Ellipse 91 copy" class="cls-8" d="M424.03,781.345c2.471,0,2.552,4.136,2.552,5.536a2.552,2.552,0,0,1-5.1,0C421.478,785.481,421.134,781.345,424.03,781.345Z" transform="translate(-378 -751)"/>
</svg>
