<svg xmlns="http://www.w3.org/2000/svg" width="65.75" height="68.09" viewBox="0 0 65.75 68.09">
  <defs>
    <style>
      .cls-1 {
        fill: #919090;
      }

      .cls-1, .cls-2, .cls-3 {
        fill-rule: evenodd;
      }

      .cls-2 {
        fill: #fff;
      }

      .cls-3 {
        fill: #cfcfcf;
      }
    </style>
  </defs>
  <path id="Shape_507_copy" data-name="Shape 507 copy" class="cls-1" d="M517,1060c-2.767-1.52,1.522-6.68,13-19s41-40,41-40-15.775,16.77-28,31S519.715,1061.49,517,1060Z" transform="translate(-515.844 -992)"/>
  <path class="cls-2" d="M524,1047s-5.943-9.44,2-25,12-13,12-13-2.826,5.87,1,6,4-9,4-9a51.567,51.567,0,0,1,15.582-9.478C568.531,992.857,581,992,581,992s4.6,15.16-12,32c-14.773,14.99-21,11-21,11s0.325,2.42,4,2a32.6,32.6,0,0,0,7-2s-6.533,9.23-15,11a105.134,105.134,0,0,1-13,2l5-10Z" transform="translate(-515.844 -992)"/>
  <path class="cls-3" d="M516,1059c-1.575-.82,8.522-15.68,20-28s27-23,27-23-10.775,11.77-23,26S517.575,1059.82,516,1059Z" transform="translate(-515.844 -992)"/>
</svg>
