<svg id="Fish" xmlns="http://www.w3.org/2000/svg" width="70" height="63.63" viewBox="0 0 70 63.63">
  <defs>
    <style>
      .cls-1 {
        fill: #47c4e8;
      }

      .cls-1, .cls-2, .cls-3 {
        fill-rule: evenodd;
      }

      .cls-2 {
        fill: #67ddff;
      }

      .cls-3 {
        fill: #fff;
      }
    </style>
  </defs>
  <path class="cls-1" d="M762.68,1343.19s-4.455-17.17,9.514-32.63c9.917-10.98,25.44-7.92,35.34-12.24,3.886-1.7-2.709-9.46,9.515-16.32,0.894,0.3-2.056,9.47,1.359,13.6,3.147,3.8,13.294,1.52,13.592,2.72-9.242,14.61-17.718,5.11-17.67,9.52,0.176,16.08-7.657,24.32-23.107,32.63s-25.825,4.08-25.825,4.08a9.3,9.3,0,0,0,4.8-2.08c1.686-1.68,3.358-6.08,3.358-6.08s-1.447,1.1-4.209,3.52A17.832,17.832,0,0,1,762.68,1343.19Z" transform="translate(-762 -1282)"/>
  <path class="cls-2" d="M766.757,1318.72s-0.653-7.91,4.078-12.24,17.67-6.8,17.67-6.8l-5.437,9.52Z" transform="translate(-762 -1282)"/>
  <path class="cls-2" d="M783.068,1333.67s4.864-5.33,16.311-8.16,14.951-5.43,14.951-5.43-5.081,21.65-19.029,21.75S783.068,1333.67,783.068,1333.67Z" transform="translate(-762 -1282)"/>
  <path class="cls-3" d="M771.515,1325.51a3.4,3.4,0,1,1-3.4,3.4A3.4,3.4,0,0,1,771.515,1325.51Z" transform="translate(-762 -1282)"/>
</svg>
