<svg id="Cake" xmlns="http://www.w3.org/2000/svg" width="59.031" height="79.625" viewBox="0 0 59.031 79.625">
  <defs>
    <style>
      .cls-1 {
        fill: #b98556;
        stroke: #cc9766;
        stroke-linejoin: round;
        stroke-width: 3px;
      }

      .cls-1, .cls-2, .cls-3 {
        fill-rule: evenodd;
      }

      .cls-2 {
        fill: #fff;
      }

      .cls-3 {
        fill: #fdcc43;
      }
    </style>
  </defs>
  <path class="cls-1" d="M651.618,897.049l39.915,14.266a7.527,7.527,0,0,1-5.066,14.175l-39.916-14.265A7.527,7.527,0,0,1,651.618,897.049Zm28.3-15.464a13,13,0,0,1,7.826,16.63l-0.183.511A12.966,12.966,0,1,1,663.14,890l0.183-.511A13,13,0,0,1,679.916,881.585Zm-16.075,32.321c3.767,2.009,5,28.921-5.3,24.518l-3.529,8.587a7.731,7.731,0,1,1-13.642-7.276l14.645-28.324C658.032,907.618,660.074,911.9,663.841,913.906Zm8.332,2.845c-12.1-4.323-20.862,19.693-11.751,22.345l-2.444,9.064a7.672,7.672,0,0,0,5.942,9.139,7.8,7.8,0,0,0,9.062-6.191l6.309-29.248C680.153,917.627,676.149,918.172,672.173,916.751Zm-0.734-27a2.258,2.258,0,1,1-2.873,1.371A2.25,2.25,0,0,1,671.439,889.746Z" transform="translate(-638.969 -879.344)"/>
  <path id="Rounded_Rectangle_103" data-name="Rounded Rectangle 103" class="cls-2" d="M652.856,896.959a0.987,0.987,0,0,1,.575,1.271,4.276,4.276,0,0,0-2.031,2.226c-0.308.863,0.792,2.393,0.419,3.439-0.419,1.171-2.18,1.488-2.577,2.6-0.28.783,0.785,2.414,0.561,3.04a3.052,3.052,0,0,1-1.831,1.665,0.97,0.97,0,1,1-1.826-.653,3.859,3.859,0,0,0,1.97-2.054c0.21-.587-0.88-2.147-0.631-2.845,0.356-1,2.2-1.547,2.573-2.589,0.4-1.115-.811-2.339-0.484-3.256a4.268,4.268,0,0,1,2.031-2.225A0.988,0.988,0,0,1,652.856,896.959Z" transform="translate(-638.969 -879.344)"/>
  <path id="Rounded_Rectangle_103_copy" data-name="Rounded Rectangle 103 copy" class="cls-2" d="M690.894,910.553a0.989,0.989,0,0,1,.575,1.272,4.268,4.268,0,0,0-2.031,2.225c-0.308.863,0.792,2.394,0.418,3.439-0.418,1.171-2.179,1.489-2.576,2.6-0.28.784,0.784,2.415,0.561,3.04a3.052,3.052,0,0,1-1.831,1.665,0.97,0.97,0,1,1-1.826-.653,3.862,3.862,0,0,0,1.97-2.054c0.209-.586-0.881-2.147-0.631-2.845,0.356-1,2.2-1.547,2.573-2.589,0.4-1.115-.812-2.339-0.484-3.256a4.273,4.273,0,0,1,2.031-2.225A0.987,0.987,0,0,1,690.894,910.553Z" transform="translate(-638.969 -879.344)"/>
  <path id="Rounded_Rectangle_103_copy_2" data-name="Rounded Rectangle 103 copy 2" class="cls-2" d="M673.767,947.92a0.99,0.99,0,0,1-1.075.893,4.215,4.215,0,0,0-2.657-1.387c-0.908-.073-2.1,1.4-3.2,1.309-1.232-.1-1.986-1.724-3.156-1.818-0.825-.066-2.121,1.4-2.779,1.343a3.018,3.018,0,0,1-2.068-1.339,0.976,0.976,0,1,1,.162-1.944,3.81,3.81,0,0,0,2.477,1.372c0.617,0.049,1.84-1.418,2.574-1.359,1.049,0.084,2.048,1.729,3.145,1.817,1.173,0.094,2.042-1.4,3.007-1.325a4.215,4.215,0,0,1,2.657,1.387A0.982,0.982,0,0,1,673.767,947.92Z" transform="translate(-638.969 -879.344)"/>
  <path id="Rounded_Rectangle_103_copy_3" data-name="Rounded Rectangle 103 copy 3" class="cls-2" d="M642.756,936.755a1.006,1.006,0,0,0,.251,1.383,4.066,4.066,0,0,1,2.9.592c0.736,0.519.709,2.43,1.6,3.057,1,0.7,2.6-.1,3.551.57,0.668,0.471.726,2.442,1.259,2.817a2.919,2.919,0,0,0,2.42.257,0.966,0.966,0,0,0,1.36-.249,1,1,0,0,0-.251-1.383,3.677,3.677,0,0,1-2.752-.49c-0.5-.352-0.5-2.281-1.094-2.7-0.849-.6-2.651.063-3.54-0.564-0.951-.669-0.663-2.4-1.445-2.946a4.06,4.06,0,0,0-2.9-.593A0.966,0.966,0,0,0,642.756,936.755Z" transform="translate(-638.969 -879.344)"/>
  <path id="Ellipse_100_copy" data-name="Ellipse 100 copy" class="cls-3" d="M670.422,909.632a4.516,4.516,0,1,1-5.746,2.742A4.5,4.5,0,0,1,670.422,909.632Zm-4.728,13.23a4.516,4.516,0,1,1-5.746,2.742A4.5,4.5,0,0,1,665.694,922.862Z" transform="translate(-638.969 -879.344)"/>
  <path id="Ellipse_99_copy" data-name="Ellipse 99 copy" class="cls-2" d="M671.711,888.244a2.509,2.509,0,1,1-3.193,1.524A2.5,2.5,0,0,1,671.711,888.244Zm-2.871,8.033a17.019,17.019,0,0,0,4.658,2.731,19.8,19.8,0,0,0,5.673.961,1,1,0,0,1-.675,1.89,19.762,19.762,0,0,1-5.673-.961,17.019,17.019,0,0,1-4.658-2.731A1,1,0,0,1,668.84,896.277Zm12.732-4.508a2.509,2.509,0,1,1-3.192,1.523A2.5,2.5,0,0,1,681.572,891.769Z" transform="translate(-638.969 -879.344)"/>
</svg>
