<svg xmlns="http://www.w3.org/2000/svg" width="191.362" height="87.027" viewBox="0 0 191.362 87.027">
  <g id="logo-top" transform="translate(-41.638 -18.987)">
    <text id="Cloud" transform="translate(192 74)" fill="#ff5a00" font-size="30" font-family="OpenSans-Bold, Open Sans" font-weight="700"><tspan x="-40.928" y="0">cloud</tspan></text>
    <path id="cloud-2" data-name="cloud" d="M29.135,68.331c5.117,4.605,10.774,6.833,12.81,7A18.04,18.04,0,0,0,54.16,71.5,10.12,10.12,0,0,0,67.1,77.839l.528,10.168a22.121,22.121,0,0,1,10.3-7.593c3.247-1.086,6.958-.862,8.914-1.189,9.243-1.544,17.262-9.6,20.667-18.224,3.839-9.726,3.273-23.779-4.886-29.713a14.954,14.954,0,0,0-5.15-2.377c2.534-5.165,3.179-11.226.858-16.573C94.5,3.5,83.668-.758,74.629,1.643a21.414,21.414,0,0,0-14,12.81C53.624,7.24,43.865,3,35.276,5.6a19.926,19.926,0,0,0-8.188,4.952,20.347,20.347,0,0,0-5.48,10.168C13.109,18.464,4.584,22.7,1.6,29.7c-3.524,8.271,1.2,19.152,11.225,22.318-3.767,5.488-1.811,11.953,1.915,13.734,2.635,1.26,6.558.358,9.508-2.641a42.314,42.314,0,0,0,4.886,5.216Z" transform="translate(41.195 18.006)" fill="#ff5a00" fill-rule="evenodd"/>
    <text id="Talking" transform="translate(99 72)" fill="#fff" font-size="24" font-family="OpenSans-Bold, Open Sans" font-weight="700"><tspan x="-43.629" y="0">Talking</tspan></text>
  </g>
</svg>
