<svg xmlns="http://www.w3.org/2000/svg" width="88.719" height="88" viewBox="0 0 88.719 88">
  <defs>
    <style>
      .cls-1 {
        fill: #5188bb;
        stroke: #e8e8e8;
        stroke-linejoin: round;
        stroke-width: 5px;
      }

      .cls-2 {
        fill: #eed2aa;
      }

      .cls-2, .cls-3, .cls-4, .cls-8, .cls-9 {
        fill-rule: evenodd;
      }

      .cls-3 {
        fill: #fae6c9;
      }

      .cls-4 {
        fill: #fff;
      }

      .cls-5, .cls-6 {
        fill: #1a1a1a;
      }

      .cls-5 {
        opacity: 0.2;
      }

      .cls-6 {
        opacity: 0.1;
      }

      .cls-7 {
        fill: #2e557a;
      }

      .cls-8 {
        fill: #e36c3d;
      }

      .cls-9 {
        fill: #3d93e3;
      }
    </style>
  </defs>
  <rect id="Rounded_Rectangle_40" data-name="Rounded Rectangle 40" class="cls-1" x="3" y="7" width="80" height="75" rx="5" ry="5"/>
  <path class="cls-2" d="M810,206s-3.955,4.59-4,10,1.438,7.975,0,10a19.379,19.379,0,0,0-3,6,18.486,18.486,0,0,0-1,9c0.472,5.477.394,7.212,2,10s-0.482,7.123,3,6,3.375-6.344,9-10,3.848-3.558,7-5,1.008-3.247,8-6,7.008-3.588,7-7-0.34-5.018,0-7,5-1,5-1-2.653,4.108,0,4,2.82,1.5,5,0,1.383-3.795,3-7-2-9-2-9-6.037-6.306-8-6S810,206,810,206Zm-1,62s1.295-4.055,4-6a33.635,33.635,0,0,1,5-3s0.027-3.833,2-4,2.982,2.249,3,4,0.509,4.678-2,6-5.223.937-7,2S809,268,809,268Zm-28-41c1.275,0.329,8.8,2.441,8,8s-0.15,3.13-1,8-2.284,6.078,0,10,5.716,5.367,4,13-5.24,5.145-4,9,10.742,5.1,14,5,17.152-4.07,21-4,4.49-.507,8,1,7.258,2.056,12,3-27.383,9.4-35,9-12.972-2.033-19-4-11.1-4.018-11-11,1.814-35.684,2-37S779.725,226.671,781,227Zm61,25c1.215-1-2.01-5.255,5-8s6.552-3.684,8-6,2.194-9.588,6-11,7.239,6.441,5,10,0.248,3.041-5,8-1.439,3.212-7,6-4.519,4.515-8,4S840.785,253,842,252Z" transform="translate(-778 -201)"/>
  <path class="cls-3" d="M808,237s-1.875.108,1-6,3.125-5.188,3-10-0.839-5.966,3-8,7.544-6.84,9-2,5.071,8.716,1,12-4.357.449-7,5-1.785,5.619-5,7S808,237,808,237Z" transform="translate(-778 -201)"/>
  <path class="cls-4" d="M813,228s0.947,0.42,2-6-0.277-5.055,3-8a13.037,13.037,0,0,0,4-6s-0.75,7.019-3,12S815.436,228.7,813,228Z" transform="translate(-778 -201)"/>
  <rect class="cls-5" x="42" width="40" height="81"/>
  <rect class="cls-6" x="1" y="7" width="82" height="38"/>
  <circle class="cls-7" cx="68.5" cy="65.5" r="4.5"/>
  <path class="cls-8" d="M845.4,264.768l5.232-5.062-1.768,7.062-1,1.732-5.232,5.062L844.4,266.5Z" transform="translate(-778 -201)"/>
  <path class="cls-9" d="M844.9,265.634l5.2,3-5,8.66-5.2-3Z" transform="translate(-778 -201)"/>
</svg>
