<svg xmlns="http://www.w3.org/2000/svg" width="52.937" height="69.13" viewBox="0 0 52.937 69.13">
  <defs>
    <style>
      .cls-1 {
        fill: #425871;
      }

      .cls-1, .cls-2, .cls-3, .cls-4, .cls-5 {
        fill-rule: evenodd;
      }

      .cls-2 {
        fill: #4d6682;
      }

      .cls-3 {
        fill: #72869b;
      }

      .cls-4 {
        fill: #edbf54;
      }

      .cls-5 {
        fill: #fff;
        opacity: 0.9;
      }
    </style>
  </defs>
  <path class="cls-1" d="M788.408,1020.09c1.989-3.44,5.109-2.96,7.587-1.69,2.7,1.38,4.922,3.68,2.785,7s-23.348,33.58-25.64,36.63-7.334.5-5.252-3.64S786.419,1023.53,788.408,1020.09Z" transform="translate(-763.844 -994.25)"/>
  <path class="cls-2" d="M797.126,1015.52l-28.91,47.84-4.385-5.7,16.726-35.05,7.589-6.5Z" transform="translate(-763.844 -994.25)"/>
  <path class="cls-3" d="M797.98,1028.44s0.5-3.54-4.386-5.7-9.978.66-9.978,0.66-1.78-14.69,15.506-8.01S797.98,1028.44,797.98,1028.44Z" transform="translate(-763.844 -994.25)"/>
  <path class="cls-4" d="M797.192,1016.51c6.713,3.8,16.818-1.98,13.313-10.86-2.5-6.32,6.262-11.395,6.262-11.395s-12.241.184-18.827,3.241S789.231,1012.01,797.192,1016.51Z" transform="translate(-763.844 -994.25)"/>
  <path class="cls-5" d="M812.841,995.513s-14.323.455-16.766,4.1-2.235,10.314,3.454,6.764,2.68-5.23,7.523-7.489S812.841,995.513,812.841,995.513Z" transform="translate(-763.844 -994.25)"/>
</svg>
