<svg xmlns="http://www.w3.org/2000/svg" width="64.656" height="80.87" viewBox="0 0 64.656 80.87">
  <defs>
    <style>
      .cls-1 {
        fill: #f3bd2b;
      }

      .cls-1, .cls-2, .cls-3, .cls-4, .cls-5 {
        fill-rule: evenodd;
      }

      .cls-2 {
        fill: #e9dbdb;
      }

      .cls-3 {
        fill: #443d3d;
      }

      .cls-4 {
        fill: #4c5c6c;
      }

      .cls-5 {
        fill: #3c4751;
      }
    </style>
  </defs>
  <path class="cls-1" d="M801.915,1315.98s6.249,4.68,1.682,4.81c-4.261.12-6.292-2.63-12.182-.44-9.543,3.55,3.962,8.81-4.993,8.73-11.622-.1-16.542-3.13-16.542-3.13s-7.755.7-1.048,3.11c6.484,2.33,12.76,3.95,22.381,2.21,9.031-1.63-5.663-6.78,1.679-9.74,4.731-1.91,5.41.71,11.156,0.6,6.386-.13,1.218-6.3-0.511-6.94C801.793,1314.54,801.915,1315.98,801.915,1315.98Z" transform="translate(-766.094 -1251.13)"/>
  <g>
    <path class="cls-2" d="M801.994,1298.7l1.236,17.83,10.656-14.37Z" transform="translate(-766.094 -1251.13)"/>
    <path class="cls-3" d="M800.954,1311.39s0.413-1.44,2.389-.24a37.5,37.5,0,0,0,3.829,2l-6.433,7.85Z" transform="translate(-766.094 -1251.13)"/>
    <path class="cls-4" d="M814.183,1253.36l-12.189,45.34a15.186,15.186,0,0,0,5.283,3.77,12.558,12.558,0,0,0,6.421.15l14.19-45.33Z" transform="translate(-766.094 -1251.13)"/>
    <path class="cls-5" d="M808.656,1255.35s5.046,1.55,11.572,3.77c2.305,0.79-9.125,25.7-1.283,26.46,5.893,0.58,9.072-29.81,9.072-29.81L812,1252.61Z" transform="translate(-766.094 -1251.13)"/>
    <path class="cls-1" d="M824.656,1261.32l-4.259,17.22L822,1284l3.176-4.95,5.259-18.22s1.613-2.74-2.635-3.13C824.145,1257.36,824.656,1261.32,824.656,1261.32Z" transform="translate(-766.094 -1251.13)"/>
    <path class="cls-1" d="M815.085,1254.6l1.1-2.62a9.053,9.053,0,0,1,5.474-.67,15.932,15.932,0,0,1,5.768,3.39l-1.184,3.18Z" transform="translate(-766.094 -1251.13)"/>
  </g>
</svg>
