<svg id="Present" xmlns="http://www.w3.org/2000/svg" width="62.844" height="59.72" viewBox="0 0 62.844 59.72">
  <defs>
    <style>
      .cls-1 {
        fill: #fff844;
      }

      .cls-1, .cls-2, .cls-3, .cls-4, .cls-5 {
        fill-rule: evenodd;
      }

      .cls-2 {
        fill: #db3e58;
      }

      .cls-3 {
        fill: #fc5873;
      }

      .cls-4, .cls-5 {
        fill: #fffdcf;
      }

      .cls-4 {
        opacity: 0.12;
      }

      .cls-5 {
        opacity: 0.5;
      }
    </style>
  </defs>
  <g id="Gift_Box" data-name="Gift Box">
    <path class="cls-1" d="M912.5,1802.49s-9.822,1.28-10.627-6,2.964-10.57,9.918-9.53c7.085,1.05,4.96,10.24,4.96,10.24h-3.188s2.162-6.01-4.251-6.01c-4.313,0-4.534,6.02-.709,6.71s4.96-.35,4.96-0.35Zm8.433-.09s9.793,1.29,10.6-6.03-2.956-10.62-9.89-9.58c-7.064,1.06-4.945,10.29-4.945,10.29h3.179s-2.156-6.03,4.239-6.03c4.3,0,4.52,6.04.706,6.74s-4.945-.35-4.945-0.35Zm-9.85-3.79v6.71h10.273v-6.71a5.44,5.44,0,0,1-1.6-1.42,6.7,6.7,0,0,1-.881-2.11h-4.605a3.459,3.459,0,0,1-1.417,2.82A4.724,4.724,0,0,1,911.081,1798.61Z" transform="translate(-885.719 -1786.59)"/>
    <path id="Rounded_Rectangle_14" data-name="Rounded Rectangle 14" class="cls-2" d="M894.193,1810.67h45.468a4.453,4.453,0,0,1,4.458,4.45v26.74a4.453,4.453,0,0,1-4.458,4.45H894.193a4.452,4.452,0,0,1-4.457-4.45v-26.74A4.452,4.452,0,0,1,894.193,1810.67Z" transform="translate(-885.719 -1786.59)"/>
    <path id="Rounded_Rectangle_15" data-name="Rounded Rectangle 15" class="cls-3" d="M890.181,1801.75h53.046a4.461,4.461,0,0,1,4.458,4.46v3.12a4.453,4.453,0,0,1-4.458,4.45H890.181a4.452,4.452,0,0,1-4.457-4.45v-3.12A4.46,4.46,0,0,1,890.181,1801.75Z" transform="translate(-885.719 -1786.59)"/>
    <path id="Rectangle_9_copy" data-name="Rectangle 9 copy" class="cls-4" d="M885.724,1799.97h62.853v7.13H885.724v-7.13Z" transform="translate(-885.719 -1786.59)"/>
    <path class="cls-1" d="M908.9,1801.75h15.6v44.56H908.9v-44.56Z" transform="translate(-885.719 -1786.59)"/>
    <path class="cls-5" d="M906.675,1799.97h20.951v7.13H906.675v-7.13Z" transform="translate(-885.719 -1786.59)"/>
  </g>
</svg>
