<svg xmlns="http://www.w3.org/2000/svg" width="82" height="75" viewBox="0 0 82 75">
  <defs>
    <style>
      .cls-1 {
        fill: #fff;
      }

      .cls-1, .cls-2, .cls-3, .cls-4 {
        fill-rule: evenodd;
      }

      .cls-2 {
        fill: #802736;
      }

      .cls-3 {
        fill: #edbf54;
      }

      .cls-4 {
        fill: #bf973b;
      }
    </style>
  </defs>
  <path class="cls-1" d="M779.536,357.515l-0.588,4.695L760,359.844l0.588-4.695Z" transform="translate(-760 -309)"/>
  <path class="cls-1" d="M780.861,368.264l1.5,4.488-14.209,4.732-1.5-4.489Z" transform="translate(-760 -309)"/>
  <path class="cls-1" d="M792.961,374.75l3.349,3.345-5.921,5.914-3.349-3.345Z" transform="translate(-760 -309)"/>
  <path class="cls-2" d="M801.74,314.914s6.445-4.976,10.657,4.732c3.942,9.086,8.289,10.645,8.289,10.645s-9.809,7.813-15.394-1.183S801.74,314.914,801.74,314.914Z" transform="translate(-760 -309)"/>
  <path class="cls-3" d="M776.874,338.571l24.866-24.84a33.044,33.044,0,0,1,5.921,10.646c2.177,6.492,13.025,5.914,13.025,5.914L815.95,343.3l8.288,20.108S842,362.031,842,374.057c0,3.067-14.209,5.914-14.209,5.914l-17.762-2.366L775.69,342.12Z" transform="translate(-760 -309)"/>
  <path class="cls-1" d="M797,314.914s-3.113,12.773,10.657,17.743,13.025,3.549,13.025,3.549l4.736-8.28L804.108,309Z" transform="translate(-760 -309)"/>
  <path class="cls-4" d="M792.627,356.286l-0.72-4.676,30.787-4.731,0.72,4.676Zm5.908,8.282-0.694-4.68,31.971-4.731,0.694,4.68Z" transform="translate(-760 -309)"/>
  <path class="cls-1" d="M772.137,343.3l37.892,36.668h27.235c4.545,0,4.736-7.1,4.736-7.1H811.213l-34.339-34.3Z" transform="translate(-760 -309)"/>
</svg>
