<svg id="Tea" xmlns="http://www.w3.org/2000/svg" xmlns:xlink="http://www.w3.org/1999/xlink" width="76.969" height="59.03" viewBox="0 0 76.969 59.03">
  <defs>
    <style>
      .cls-1 {
        fill: #b0952a;
      }

      .cls-1, .cls-2, .cls-3, .cls-4, .cls-5, .cls-6, .cls-7, .cls-8, .cls-9 {
        fill-rule: evenodd;
      }

      .cls-2 {
        fill: #ddbc37;
      }

      .cls-3 {
        fill: #ffd83b;
      }

      .cls-4 {
        fill: #aaa;
      }

      .cls-5 {
        fill: #8a8a8a;
        opacity: 0.45;
      }

      .cls-6 {
        fill: #e2e2e2;
      }

      .cls-7 {
        fill: #d0d0d0;
      }

      .cls-8 {
        fill: #434343;
      }

      .cls-9 {
        fill: #d54e29;
        filter: url(#filter);
      }
    </style>
    <filter id="filter" x="642.156" y="1320.22" width="13.844" height="20.78" filterUnits="userSpaceOnUse">
      <feOffset result="offset" dx="2.007" dy="2.229" in="SourceAlpha"/>
      <feGaussianBlur result="blur"/>
      <feFlood result="flood" flood-opacity="0.18"/>
      <feComposite result="composite" operator="in" in2="blur"/>
      <feBlend result="blend" in="SourceGraphic"/>
    </filter>
  </defs>
  <path class="cls-1" d="M663.035,1303.44l1.393,26.57,25.072,9.79v-29.24Z" transform="translate(-632.031 -1284.97)"/>
  <path class="cls-2" d="M689.5,1339.8l18.107-2.79v-27.97l-18.107,1.52v29.24Z" transform="translate(-632.031 -1284.97)"/>
  <path class="cls-3" d="M661.642,1302.04h22.286l25.072,7-19.5,2.25Z" transform="translate(-632.031 -1284.97)"/>
  <g>
    <path id="Shape_423_copy" data-name="Shape 423 copy" class="cls-4" d="M635.178,1337.01v-43.36s5.44-5.59,20.893-5.59,22.286,4.19,22.286,4.19v44.76s-7.512-4.1-22.286-4.2S635.178,1337.01,635.178,1337.01Z" transform="translate(-632.031 -1284.97)"/>
    <path class="cls-5" d="M674.178,1288.06s-37.677,2.13-41.786,22.38c-2.953,14.54,12.536,25.17,12.536,25.17s49.176-21.49,40.393-36.36,8.124-12.61-23.679-13.99S674.178,1288.06,674.178,1288.06Z" transform="translate(-632.031 -1284.97)"/>
    <path class="cls-6" d="M635.178,1295.05v36.36c0,3.03,1.044,8.07,3.519,9.28,3.172,1.54,8.693,3.31,17.374,3.31,9.244,0,15.4-1.5,18.861-2.71,2.322-.81,3.425-3.85,3.425-8.48v-37.76s-7.512,4.1-22.286,4.2S635.178,1295.05,635.178,1295.05Z" transform="translate(-632.031 -1284.97)"/>
    <path id="Rounded_Rectangle_29" data-name="Rounded Rectangle 29" class="cls-7" d="M672.785,1306.24a4.189,4.189,0,0,1,4.179,4.2v23.77a4.179,4.179,0,1,1-8.357,0v-23.77A4.188,4.188,0,0,1,672.785,1306.24Z" transform="translate(-632.031 -1284.97)"/>
    <path class="cls-6" d="M672.785,1305.21s16.715-2.27,16.715,16.14c0,15.55-16.715,14.26-16.715,14.26a4.791,4.791,0,0,1-1.393-2.7,4.023,4.023,0,0,1,1.393-2.42s11.422,0.31,11.422-10.23-11.422-8.84-11.422-8.84-1.393-.44-1.393-3.15C671.392,1305.49,672.785,1305.21,672.785,1305.21Z" transform="translate(-632.031 -1284.97)"/>
    <path class="cls-8" d="M651.892,1297.85s-4.243.02-4.179,12.59,0,12.58,0,12.58h1.393v-12.58c0-12.8,4.179-12.59,4.179-12.59h-1.393Z" transform="translate(-632.031 -1284.97)"/>
    <path class="cls-9" d="M647.713,1320.23l-4.178,4.19-1.393,11.19,11.143,2.8v-12.59l-2.786-5.59h-2.786Z" transform="translate(-632.031 -1284.97)"/>
    <path class="cls-3" d="M642.142,1331.41l12.536,2.8v5.59l-13.929-4.19Z" transform="translate(-632.031 -1284.97)"/>
  </g>
</svg>
