<svg id="TV" xmlns="http://www.w3.org/2000/svg" width="61.062" height="60.59" viewBox="0 0 61.062 60.59">
  <defs>
    <style>
      .cls-1 {
        fill: #fff;
      }

      .cls-1, .cls-2, .cls-4 {
        fill-rule: evenodd;
      }

      .cls-2 {
        fill: #4b4b4b;
      }

      .cls-3 {
        fill: #c23c6c;
      }

      .cls-4 {
        fill: #6998c7;
      }
    </style>
  </defs>
  <g>
    <path id="_2" data-name="2" class="cls-1" d="M819.565,1680.21H797.9l10.757-8.82a2.457,2.457,0,0,0,.473.09,3.04,3.04,0,1,0-3.046-3.04,2.866,2.866,0,0,0,.208,1.03l-11.705,10.74h-0.931l-12.146-10.74a3,3,0,0,0,.206-1.03,3.046,3.046,0,1,0-3.046,3.04,2.384,2.384,0,0,0,.47-0.09l11.206,8.82H768.673a5.091,5.091,0,0,0-5.089,5.09v35.61a5.091,5.091,0,0,0,5.089,5.09h50.892a5.091,5.091,0,0,0,5.089-5.09V1685.3a5.091,5.091,0,0,0-5.089-5.09m-10.179,36.06a5.09,5.09,0,0,1-5.089,5.09H772.425a5.09,5.09,0,0,1-5.089-5.09v-27.22a5.09,5.09,0,0,1,5.089-5.09H804.3a5.09,5.09,0,0,1,5.089,5.09v27.22Z" transform="translate(-763.594 -1665.41)"/>
    <path id="Rounded_Rectangle_4" data-name="Rounded Rectangle 4" class="cls-2" d="M771.608,1683.67h34.324a4.452,4.452,0,0,1,4.457,4.45v29.41a4.46,4.46,0,0,1-4.457,4.46H771.608a4.461,4.461,0,0,1-4.458-4.46v-29.41A4.453,4.453,0,0,1,771.608,1683.67Z" transform="translate(-763.594 -1665.41)"/>
    <circle class="cls-3" cx="53.484" cy="52.575" r="4.453"/>
    <path class="cls-1" d="M817.989,1714.61l1.74,1.39-1.783,2.23-1.74-1.39Z" transform="translate(-763.594 -1665.41)"/>
    <path id="Rounded_Rectangle_5" data-name="Rounded Rectangle 5" class="cls-4" d="M815.07,1686.34h4.012a2.005,2.005,0,1,1,0,4.01H815.07A2.005,2.005,0,1,1,815.07,1686.34Z" transform="translate(-763.594 -1665.41)"/>
    <path id="Rounded_Rectangle_5_copy" data-name="Rounded Rectangle 5 copy" class="cls-4" d="M815.07,1693.02h4.012a2.01,2.01,0,0,1,0,4.02H815.07A2.01,2.01,0,0,1,815.07,1693.02Z" transform="translate(-763.594 -1665.41)"/>
  </g>
</svg>
