<svg id="Wifi" xmlns="http://www.w3.org/2000/svg" width="76.219" height="57.5" viewBox="0 0 76.219 57.5">
  <defs>
    <style>
      .cls-1 {
        fill: #c5334b;
        opacity: 0.6;
      }

      .cls-1, .cls-2 {
        fill-rule: evenodd;
      }

      .cls-2 {
        fill: #fff;
      }
    </style>
  </defs>
  <path class="cls-1" d="M917.365,1726.89l-38.774-39.03s8.9-18.45,37.893-18.45,38.333,18.01,38.333,18.01Z" transform="translate(-878.594 -1669.41)"/>
  <path id="_3" data-name="3" class="cls-2" d="M903.78,1706.89l3.7,3.71a14.057,14.057,0,0,1,19.663,0l3.693-3.71A18.648,18.648,0,0,0,903.78,1706.89Zm13.525,6.94a6.055,6.055,0,0,0-4.539,2.08l4.54,4.56,4.541-4.56A6.06,6.06,0,0,0,917.305,1713.83Zm31.633-25.66a44.609,44.609,0,0,0-63.265,0c-0.089.09-.171,0.19-0.26,0.28l3.807,3.82a39.8,39.8,0,0,1,56.173,0l3.806-3.82C949.11,1688.36,949.028,1688.26,948.938,1688.17Zm-31.632-.26a31.65,31.65,0,0,0-22.549,9.38c-0.089.09-.172,0.19-0.261,0.28l4,4.01a26.737,26.737,0,0,1,37.629,0l3.994-4.01c-0.088-.09-0.171-0.19-0.261-0.28A31.646,31.646,0,0,0,917.306,1687.91Z" transform="translate(-878.594 -1669.41)"/>
</svg>
