<svg xmlns="http://www.w3.org/2000/svg" width="28.681" height="28.689" viewBox="0 0 28.681 28.689"><path d="M28.3,1.07a.89.89,0,0,0-.684-.684A20.335,20.335,0,0,0,22.994,0c-5.783,0-9.251,3.093-11.839,7.172H5.317a2.69,2.69,0,0,0-2.4,1.484L.145,14.193a1.345,1.345,0,0,0,1.2,1.945H7.164L5.905,17.4a1.793,1.793,0,0,0,0,2.535l2.852,2.853a1.793,1.793,0,0,0,2.536,0l1.259-1.259v5.818a1.345,1.345,0,0,0,1.944,1.2l5.53-2.767a2.685,2.685,0,0,0,1.485-2.4v-5.85c4.067-2.594,7.172-6.074,7.172-11.828A19.876,19.876,0,0,0,28.3,1.07ZM21.517,9.414a2.241,2.241,0,1,1,2.241-2.241,2.241,2.241,0,0,1-2.241,2.241Z" transform="translate(-0.004)" fill="#fff"/></svg>