<svg xmlns="http://www.w3.org/2000/svg" width="1657" height="1319" viewBox="0 0 1657 1319">
  <defs>
    <style>
      .cls-1 {
        fill: #ff5a00;
        fill-rule: evenodd;
      }
    </style>
  </defs>
  <path class="cls-1" d="M435,1021c77.5,69.75,163.175,103.49,194,106,65.62,5.34,129.994-17,185-58a153.265,153.265,0,0,0,196,96q4,76.995,8,154c42.03-53.27,93.53-94.1,156-115,49.17-16.45,105.38-13.05,135-18,139.98-23.39,261.44-145.37,313-276,58.14-147.3,49.57-360.133-74-450-23.01-16.737-49.11-28.62-78-36,38.38-78.223,48.15-170.013,13-251C1424.93,39.2,1260.9-25.361,1124,11c-98.24,26.092-173.735,101.464-212,194C805.885,95.777,658.08,31.6,528,71c-44.964,13.62-88.882,39.829-124,75-41.993,42.056-70.52,95.461-83,154C192.28,265.757,63.173,329.983,18,436-35.374,561.262,36.242,726.06,188,774c-57.049,83.109-27.425,181.022,29,208,39.911,19.08,99.326,5.415,144-40A640.843,640.843,0,0,0,435,1021Z"/>
</svg>
