<svg xmlns="http://www.w3.org/2000/svg" width="32.291" height="27.798" viewBox="0 0 32.291 27.798"><g transform="translate(-32.976 -251.959)"><path d="M7.948,18.655a7.766,7.766,0,0,0,3.544,1.937,4.991,4.991,0,0,0,3.38-1.06,2.8,2.8,0,0,0,3.581,1.754L18.6,24.1A6.121,6.121,0,0,1,21.45,22a12.675,12.675,0,0,1,2.466-.329,8.11,8.11,0,0,0,5.718-5.042c1.062-2.691.906-6.579-1.352-8.221a4.138,4.138,0,0,0-1.425-.658,5.481,5.481,0,0,0,.238-4.586A5.68,5.68,0,0,0,20.536.2a5.925,5.925,0,0,0-3.873,3.544C14.724,1.752,12.024.58,9.647,1.3A5.514,5.514,0,0,0,7.382,2.67,5.63,5.63,0,0,0,5.866,5.483,4.692,4.692,0,0,0,.33,7.968a4.74,4.74,0,0,0,3.106,6.175,2.616,2.616,0,0,0,.53,3.8A2.421,2.421,0,0,0,6.6,17.212,11.708,11.708,0,0,0,7.948,18.655Z" transform="translate(33.991 252.952)" fill="none" stroke="#fff" stroke-width="2" fill-rule="evenodd"/></g></svg>