<svg xmlns="http://www.w3.org/2000/svg" xmlns:xlink="http://www.w3.org/1999/xlink" width="179.04" height="87" viewBox="0 0 179.04 87">
  <defs>
    <style>
      .cls-1, .cls-6, .cls-9 {
        fill: #fff;
      }

      .cls-1 {
        stroke: #707070;
      }

      .cls-2 {
        clip-path: url(#clip-path);
      }

      .cls-3, .cls-4, .cls-7 {
        fill: #ff5a00;
      }

      .cls-3, .cls-4, .cls-5 {
        fill-rule: evenodd;
      }

      .cls-5 {
        mix-blend-mode: overlay;
        isolation: isolate;
        fill: url(#linear-gradient);
      }

      .cls-6 {
        stroke: #ff5a00;
        stroke-linecap: square;
        stroke-width: 0.2px;
      }

      .cls-8, .cls-9 {
        stroke: none;
      }

      .cls-10 {
        filter: url(#cloud);
      }
    </style>
    <clipPath id="clip-path">
      <rect id="Rectangle_250" data-name="Rectangle 250" class="cls-1" width="126" height="87" transform="translate(33.703 47.162)"/>
    </clipPath>
    <filter id="cloud" x="2.199" y="-3" width="115.88" height="93.96" filterUnits="userSpaceOnUse">
      <feOffset dy="3" input="SourceAlpha"/>
      <feGaussianBlur stdDeviation="3" result="blur"/>
      <feFlood flood-color="red" flood-opacity="0.161"/>
      <feComposite operator="in" in2="blur"/>
      <feComposite in="SourceGraphic"/>
    </filter>
    <linearGradient id="linear-gradient" x1="0.5" x2="0.5" y2="1" gradientUnits="objectBoundingBox">
      <stop offset="0" stop-color="#fff"/>
      <stop offset="1" stop-color="#ff5a00"/>
    </linearGradient>
  </defs>
  <g id="Group_24" data-name="Group 24" transform="translate(-45 -26)">
    <g id="Mask_Group_2" data-name="Mask Group 2" class="cls-2" transform="translate(11.297 -21.162)">
      <g class="cls-10" transform="matrix(1, 0, 0, 1, 33.7, 47.16)">
        <path id="cloud-2" data-name="cloud" class="cls-3" d="M25.7,58.835c4.58,4.02,9.643,5.964,11.465,6.109A16.427,16.427,0,0,0,48.1,61.6a8.906,8.906,0,0,0,4.6,5.129,9.268,9.268,0,0,0,6.978.4l.473,8.875a19.774,19.774,0,0,1,9.219-6.628c2.906-.948,6.228-.752,7.978-1.037C85.626,67,92.8,59.966,95.85,52.438c3.436-8.489,2.929-20.755-4.373-25.934a13.543,13.543,0,0,0-4.61-2.075,16.9,16.9,0,0,0,.768-14.466C84.2,2.252,74.511-1.468,66.42.627A18.994,18.994,0,0,0,53.892,11.808C47.621,5.513,38.886,1.814,31.2,4.085a17.924,17.924,0,0,0-7.328,4.322,17.631,17.631,0,0,0-4.9,8.875C11.359,15.309,3.73,19.011,1.06,25.121-2.094,32.34,2.138,41.837,11.106,44.6,7.735,49.39,9.486,55.033,12.82,56.588c2.359,1.1,5.87.312,8.51-2.305A37.325,37.325,0,0,0,25.7,58.835Z" transform="translate(11.18 2.95)"/>
      </g>
      <g id="cloud-3" data-name="cloud" class="cls-4" transform="translate(44.88 50.112)">
        <path class="cls-8" d="M 56.66761016845703 75.34202575683594 L 56.52912902832031 72.74222564697266 L 56.46141052246094 71.47093963623047 L 56.14262390136719 65.48643493652344 C 55.50913619995117 65.61281585693359 54.86372375488281 65.67652893066406 54.2127571105957 65.67652893066406 C 52.75127410888672 65.67652893066406 51.28472900390625 65.34502410888672 49.97167587280273 64.71783447265625 C 48.05824279785156 63.80385971069336 46.49913024902344 62.27455520629883 45.55610275268555 60.42166137695313 C 42.74265289306641 62.21065902709961 39.68042755126953 63.15050506591797 36.63222122192383 63.15050506591797 C 36.24379730224609 63.15050506591797 35.85110092163086 63.13497161865234 35.46504974365234 63.10432815551758 C 34.33692932128906 63.01474380493164 32.5233039855957 62.40570449829102 30.61351585388184 61.47511672973633 C 28.9589958190918 60.66891479492188 26.45484924316406 59.2410774230957 23.92098236083984 57.01711654663086 C 22.62944030761719 55.88196182250977 21.4132022857666 54.65128326416016 20.29510879516602 53.34894561767578 C 18.54732322692871 54.77523803710938 16.47491264343262 55.57707595825195 14.47564888000488 55.57707595825195 C 13.51490211486816 55.57707595825195 12.62755584716797 55.3904914855957 11.8382625579834 55.02250289916992 C 10.10067558288574 54.21231842041016 8.770689010620117 52.49714279174805 8.189302444458008 50.31676864624023 C 7.563916206359863 47.97140884399414 7.904895305633545 45.43356323242188 9.117790222167969 43.18575286865234 C 7.317427158355713 42.47928619384766 5.685642242431641 41.47978591918945 4.253395557403564 40.20466232299805 C 2.625128746032715 38.75502395629883 1.288662195205688 36.95130157470703 0.3884488344192505 34.98850250244141 C -1.321951150894165 31.25917053222656 -1.427684545516968 27.11711692810059 0.09838216751813889 23.62442398071289 C 1.206355452537537 21.08852958679199 3.131808757781982 18.92923736572266 5.666555404663086 17.37997055053711 C 8.193075180053711 15.83574295043945 11.12979507446289 15.01950359344482 14.1592493057251 15.01950359344482 C 15.24503898620605 15.01950359344482 16.3323860168457 15.12605762481689 17.40372848510742 15.33692073822021 C 18.24960136413574 12.28617572784424 19.87080764770508 9.53333854675293 22.1300220489502 7.326809883117676 C 24.19750213623047 5.307516574859619 26.83371543884277 3.753049850463867 29.55304908752441 2.949756622314453 C 31.09108924865723 2.495436668395996 32.71479415893555 2.265076637268066 34.37904739379883 2.265076637268066 C 37.48575592041016 2.265076637268066 40.68110275268555 3.042556524276733 43.8763427734375 4.575916767120361 C 46.45911407470703 5.815361022949219 48.97525405883789 7.540197372436523 51.22146606445313 9.604307174682617 C 52.33216857910156 7.419072151184082 53.82203674316406 5.444795608520508 55.58215713500977 3.836503267288208 C 57.82391738891602 1.788116574287415 60.40959548950195 0.3741832673549652 63.26735687255859 -0.3660167157649994 C 64.76370239257813 -0.7536033987998962 66.33411407470703 -0.9501233696937561 67.93494415283203 -0.9501233696937561 C 71.37429046630859 -0.9501233696937561 74.88645935058594 -0.01916338689625263 77.82450103759766 1.671276569366455 C 80.97159576416016 3.482009887695313 83.35597991943359 6.058996677398682 84.71986389160156 9.123662948608398 C 85.74555206298828 11.42834281921387 86.17453002929688 13.93430328369141 85.994873046875 16.57192993164063 C 85.85516357421875 18.62322998046875 85.33175659179688 20.7301139831543 84.47039031982422 22.7292652130127 C 85.78348541259766 23.16757583618164 86.98634338378906 23.77156448364258 88.05816650390625 24.53185081481934 C 89.86460876464844 25.81304931640625 91.33648681640625 27.55786323547363 92.432861328125 29.71782302856445 C 93.42826080322266 31.6788501739502 94.09461212158203 33.93852996826172 94.41338348388672 36.43410491943359 C 95.00453186035156 41.06196975708008 94.33939361572266 46.19726181030273 92.58851623535156 50.52325057983398 C 91.06260681152344 54.29336929321289 88.49451446533203 57.91311645507813 85.3572998046875 60.71569061279297 C 81.95228576660156 63.75748825073242 78.07127380371094 65.70445251464844 74.13381958007813 66.34607696533203 C 73.53287506103516 66.44400787353516 72.80612945556641 66.48488616943359 71.96462249755859 66.53223419189453 C 70.37539672851563 66.62165069580078 68.39754486083984 66.73291778564453 66.65391540527344 67.30179595947266 C 63.51539611816406 68.32578277587891 60.70646286010742 70.34992980957031 58.30514144897461 73.31800842285156 L 56.66761016845703 75.34202575683594 Z"/>
        <path class="cls-9" d="M 57.5277099609375 72.68904113769531 C 59.90295028686523 69.75319671630859 62.8133659362793 67.50295257568359 66.34373474121094 66.35111236572266 C 69.12248229980469 65.44451141357422 72.29907989501953 65.63188171386719 73.97299194335938 65.35910034179688 C 81.8836669921875 64.07001495361328 88.74773406982422 57.34739685058594 91.66155242919922 50.1480712890625 C 94.94721984863281 42.03001403808594 94.46289825439453 30.30028343200684 87.47959136962891 25.34749794006348 C 86.17922210693359 24.42508506774902 84.70423889160156 23.77018356323242 83.07157897949219 23.36345481872559 C 85.24055480957031 19.05239868164063 85.79267883300781 13.99362754821777 83.80625152587891 9.530241012573242 C 81.13365173339844 3.524890899658203 74.48808288574219 0.04987669736146927 67.93494415283203 0.04987669736146927 C 66.44141387939453 0.04987669736146927 64.95406341552734 0.2300937324762344 63.51808166503906 0.6020413637161255 C 57.96625137329102 2.040027141571045 53.69981002807617 6.193955898284912 51.53733825683594 11.29384136199951 C 46.75016021728516 6.48856782913208 40.46090316772461 3.265082120895386 34.37905502319336 3.265082120895386 C 32.84220123291016 3.265082120895386 31.31924438476563 3.470761060714722 29.83635139465332 3.908784151077271 C 27.2952938079834 4.659412860870361 24.81335258483887 6.103855609893799 22.82873725891113 8.04221248626709 C 20.45557975769043 10.36001300811768 18.84343719482422 13.30329895019531 18.13815116882324 16.52951240539551 C 16.80307197570801 16.18314743041992 15.46633815765381 16.01950454711914 14.1592435836792 16.01950454711914 C 8.344475746154785 16.01950454711914 3.099047422409058 19.25430870056152 1.014723181724548 24.02479934692383 C -2.00160551071167 30.92829895019531 2.045637369155884 40.01070022583008 10.62193775177002 42.65278244018555 C 7.397922992706299 47.23312759399414 9.072066307067871 52.62934112548828 12.26080894470215 54.11616897583008 C 12.92076969146729 54.42385482788086 13.67543029785156 54.57707214355469 14.47564792633057 54.57707214355469 C 16.41025924682617 54.57707214355469 18.61274337768555 53.68223571777344 20.39867973327637 51.91167068481445 C 21.66425132751465 53.47538375854492 23.0632381439209 54.93186950683594 24.58063697814941 56.26555633544922 C 28.96039390563965 60.10964202880859 33.80215072631836 61.9691276550293 35.54416656494141 62.10745620727539 C 35.90766906738281 62.13630294799805 36.27052307128906 62.15049362182617 36.63224411010742 62.15049362182617 C 39.9606819152832 62.1505012512207 43.19521713256836 60.94905090332031 45.99905014038086 58.91094207763672 C 46.73483657836914 61.05458450317383 48.32099533081055 62.8211555480957 50.40267944335938 63.81548309326172 C 51.60019302368164 64.38748931884766 52.90459060668945 64.67653656005859 54.21275329589844 64.67653656005859 C 55.17863845825195 64.67653656005859 56.14639663696289 64.51910400390625 57.07560729980469 64.20172882080078 C 57.22631072998047 67.03065490722656 57.37701034545898 69.85975646972656 57.5277099609375 72.68904113769531 M 55.8074951171875 77.99502563476563 L 55.53053665161133 72.79541015625 L 55.20220947265625 66.63166809082031 C 54.8741455078125 66.66153717041016 54.54409790039063 66.67652893066406 54.21275329589844 66.67652893066406 C 52.6030387878418 66.67652893066406 50.98745346069336 66.31124114990234 49.54065322875977 65.62018585205078 C 48.26595306396484 65.01131439208984 47.14468002319336 64.17361450195313 46.2079963684082 63.1303825378418 C 45.83260726928711 62.71229553222656 45.49449920654297 62.26974868774414 45.19477844238281 61.80464553833008 C 42.47090530395508 63.34521865844727 39.54888916015625 64.15049743652344 36.63223648071289 64.15049743652344 C 36.21762466430664 64.15049743652344 35.79832458496094 64.1339111328125 35.38596725463867 64.10118103027344 C 33.14443588256836 63.92319869995117 27.90095138549805 61.84086990356445 23.26133728027344 57.76869964599609 C 22.16895484924316 56.80857086181641 21.12921142578125 55.78218078613281 20.15506172180176 54.70306396484375 C 18.40299606323242 55.90946197509766 16.41292190551758 56.57706832885742 14.47565174102783 56.57706832885742 C 13.3678092956543 56.57706832885742 12.33829498291016 56.35897064208984 11.41570854187012 55.92884063720703 C 9.409051895141602 54.99319839477539 7.880923271179199 53.04158401489258 7.22305154800415 50.57439804077148 C 6.621783256530762 48.31945037841797 6.825116157531738 45.90913009643555 7.76487922668457 43.694091796875 C 6.241539001464844 42.98627853393555 4.843149662017822 42.06859970092773 3.588451623916626 40.95155715942383 C 1.857737421989441 39.41069793701172 0.4368802607059479 37.49287033081055 -0.520505428314209 35.40539932250977 C -2.349534034729004 31.41741371154785 -2.457962512969971 26.97748374938965 -0.8179768919944763 23.22404098510742 C 0.3724945485591888 20.49934196472168 2.4344801902771 18.18345642089844 5.1450514793396 16.5267276763916 C 7.828651905059814 14.88648414611816 10.94570922851563 14.01949882507324 14.1592378616333 14.01949882507324 C 15.00872039794922 14.01949882507324 15.85897159576416 14.08102035522461 16.70254898071289 14.20311069488525 C 17.64848899841309 11.3274393081665 19.26115989685059 8.730934143066406 21.43130874633789 6.61141300201416 C 23.61325263977051 4.480327129364014 26.39699363708496 2.839327096939087 29.26975250244141 1.990727066993713 C 30.89980888366699 1.50922703742981 32.61880874633789 1.265084266662598 34.37905120849609 1.265084266662598 C 37.63673782348633 1.265084266662598 40.97765350341797 2.075684309005737 44.30900955200195 3.674355745315552 C 46.61944198608398 4.78311824798584 48.8767204284668 6.265948295593262 50.94483184814453 8.025163650512695 C 52.02400970458984 6.179699420928955 53.36701965332031 4.505964756011963 54.9075927734375 3.098269939422607 C 57.27103805541992 0.9386985301971436 59.99929428100586 -0.5525586009025574 63.01660919189453 -1.334072947502136 C 64.59484100341797 -1.742858648300171 66.24961090087891 -1.950130105018616 67.9349365234375 -1.950130105018616 C 71.54655456542969 -1.950130105018616 75.23585510253906 -0.9718443155288696 78.32321166992188 0.8045127987861633 C 81.65506744384766 2.721541404724121 84.18292236328125 5.457655429840088 85.63348388671875 8.717055320739746 C 86.72615051269531 11.17225551605225 87.18342590332031 13.83788394927979 86.99256896972656 16.63988494873047 C 86.86782836914063 18.47128105163574 86.45393371582031 20.34288597106934 85.78025817871094 22.14987182617188 C 86.80558013916016 22.57147026062012 87.76109313964844 23.09510231018066 88.63672637939453 23.71622657775879 C 90.57676696777344 25.09217071533203 92.15402221679688 26.95914077758789 93.32456970214844 29.26519775390625 C 94.37192535400391 31.32861328125 95.07199096679688 33.69794082641602 95.40532684326172 36.30739974975586 C 96.01752471923828 41.10012817382813 95.32871246337891 46.41835403442383 93.51546478271484 50.89841461181641 C 91.93328094482422 54.80758285522461 89.27259826660156 58.55894088745117 86.02352142333984 61.46145629882813 C 82.47621154785156 64.63037109375 78.42044067382813 66.66074371337891 74.29466247558594 67.33305358886719 C 73.64169311523438 67.43946838378906 72.89056396484375 67.48172760009766 72.02085113525391 67.53065490722656 C 70.48956298828125 67.61679840087891 68.58383941650391 67.72401428222656 66.96408081054688 68.25247192382813 C 64.01216888427734 69.21558380126953 61.36043930053711 71.13150024414063 59.08256530761719 73.94699859619141 L 55.8074951171875 77.99502563476563 Z"/>
      </g>
      <path id="cloud-4" data-name="cloud" class="cls-5" d="M24.581,56.266c4.38,3.844,9.222,5.7,10.964,5.842A15.709,15.709,0,0,0,46,58.911a8.517,8.517,0,0,0,4.4,4.9,8.863,8.863,0,0,0,6.673.386l.452,8.487a18.909,18.909,0,0,1,8.816-6.338c2.779-.907,5.955-.719,7.629-.992,7.911-1.289,14.775-8.012,17.689-15.211,3.286-8.118-1.017,10.019-23.679,3.489S31.68,26.719,17.34,23.973,2.046,40.011,10.622,42.653c-3.224,4.58-1.55,9.977,1.639,11.463,2.255,1.052,5.613.3,8.138-2.2A35.693,35.693,0,0,0,24.581,56.266Z" transform="translate(44.88 50.112)"/>
    </g>
    <path id="Path_313" data-name="Path 313" class="cls-6" d="M5.52-9.312a3.88,3.88,0,0,0-2.56-1.312v-.112c3.008,0,4.432,4.928,8.56,4.928,2.336,0,3.7-1.76,3.7-4.288a6.563,6.563,0,0,0-.24-1.7h-.128c-2.176,1.68-5.488.4-8.816.4-2.224,0-5.584-.16-5.76,5.44a5.2,5.2,0,0,0,4.8-.112ZM10.672-5.68C8.464-6.048,7.072-7.84,5.7-9.152L4.8-2.7C4.512-.448,6,.192,8.016.192A16.568,16.568,0,0,0,10.416,0l.032-.048c-.528-.288-.288-1.76-.176-2.656ZM19.92-8.56a6.116,6.116,0,0,0-6.464,5.888c0,1.568.784,2.832,2.32,2.832,1.776,0,2.784-1.264,3.5-4.128l.048.016-.3,1.68C18.7-.32,19.984.16,21.744.16A20.07,20.07,0,0,0,24.064,0L24.1-.048c-.56-.112-.384-1.856-.176-3.44L24.5-8A22.629,22.629,0,0,0,19.92-8.56Zm-.032.128c.144,0-.656,5.344-1.76,7.04l-.048-.032C19.056-3.264,19.744-8.432,19.888-8.432Zm10.96.064c.24-1.92.5-3.92,1.568-3.856l.016-.048a9.559,9.559,0,0,0-2.608-.368c-2.048,0-3.488.576-3.84,3.312l-.928,7.056C24.8-.3,26.016.16,27.76.16A22.961,22.961,0,0,0,30.368,0L30.4-.048c-.56-.112-.368-1.888-.176-3.44Zm6.176,0c.3-1.92.56-3.92,1.632-3.856l.016-.048a9.559,9.559,0,0,0-2.608-.368c-2.048,0-3.488.576-3.84,3.312L31.3-2.24c-.24,1.872.816,2.4,2.784,2.4A18.484,18.484,0,0,0,36.352,0l.032-.048c-.432-.24-.208-1.488-.1-2.224a23.188,23.188,0,0,1,.688-3.04,5.841,5.841,0,0,1,1.2-2.288l.064.048c-.832.944-1.344,2.32-1.712,5.28C36.272-.3,37.968.16,39.824.16A20.07,20.07,0,0,0,42.144,0l.032-.048c-.512-.128-.336-1.392-.336-2.112,0-2.32-2.3-2.192-4.816-2.112l.016-.064c2.592-.08,5.568-.48,5.568-2.672,0-1.184-.96-1.648-2.1-1.648-2.368,0-3.472,1.616-4.224,5.248l-.064-.016Zm7.248-1.184c.768.992,2.752,1.088,3.76.768a2.511,2.511,0,0,0,1.312-1.984,1.39,1.39,0,0,0-.3-.864c-.768-.992-2.752-1.088-3.76-.768a2.511,2.511,0,0,0-1.312,1.984A1.39,1.39,0,0,0,44.272-9.552ZM48.64-6.736c.128-.976-.592-1.664-2.176-1.664a6.622,6.622,0,0,0-3.248.96l.016.048c.32-.064.48.08.416.592l-.592,4.56c-.256,1.968.96,2.4,2.7,2.4A22.961,22.961,0,0,0,48.368,0L48.4-.048c-.56-.112-.368-1.888-.176-3.44ZM56.128-7.6l.048.032c-.816.96-1.328,2.5-1.664,5.3C54.272-.3,55.6.16,57.456.16A20.561,20.561,0,0,0,59.936,0l.032-.048c-.56-.112-.384-1.856-.176-3.44l.4-3.072c.176-1.408-.864-2-2.128-2-2.048,0-3.072,1.552-3.824,5.152l-.064-.016.64-3.312c.192-.976-.5-1.664-2.08-1.664a6.764,6.764,0,0,0-3.28.96l.016.048c.32-.064.48.08.416.592L49.3-2.24c-.24,1.872.768,2.4,2.736,2.4A18.484,18.484,0,0,0,54.3,0l.032-.048c-.432-.24-.208-1.488-.1-2.224a16.592,16.592,0,0,1,.688-3.04A5.639,5.639,0,0,1,56.128-7.6Zm10.56,3.648C66.384-2.64,65.84.384,63.136.384a1.843,1.843,0,0,1-1.28-.416,1.756,1.756,0,0,0-1.68,1.824c0,1.12.848,2.048,3.5,2.048,5.088,0,6.768-3.392,7.28-7.328L71.536-8a19.814,19.814,0,0,0-4.256-.56,6.116,6.116,0,0,0-6.464,5.888C60.816-1.1,61.6.16,63.136.16c1.776,0,2.784-1.264,3.5-4.128Zm.56-4.48c.144,0-.656,5.344-1.76,7.04l-.048-.032C66.416-3.264,67.1-8.432,67.248-8.432Z" transform="translate(67 67)"/>
    <path id="Path_314" data-name="Path 314" class="cls-7" d="M6.3,0c2.944,0,4.208-1.728,4.208-3.136A1.448,1.448,0,0,0,9.024-4.752a1.51,1.51,0,0,0-1.552.944,1.453,1.453,0,0,1-1.488.848A1.485,1.485,0,0,1,4.64-3.568a3.48,3.48,0,0,1-.416-1.888v-.608A3.31,3.31,0,0,1,4.64-7.952,1.614,1.614,0,0,1,6-8.56a1.527,1.527,0,0,1,1.488.848,1.5,1.5,0,0,0,1.552.944,1.441,1.441,0,0,0,1.488-1.616c0-1.376-1.28-3.136-4.224-3.136H5.968A5.479,5.479,0,0,0,1.856-9.856,5.631,5.631,0,0,0,.4-5.824V-5.7A5.623,5.623,0,0,0,1.856-1.664,5.443,5.443,0,0,0,5.968,0ZM17.5-2.96V-9.376c0-1.568-.544-2.144-1.84-2.144h-.336c-1.3,0-1.84.576-1.84,2.144v7.232c0,1.568.544,2.144,1.84,2.144h5.328a1.394,1.394,0,0,0,1.472-1.472A1.407,1.407,0,0,0,20.656-2.96ZM23.968-5.7a5.733,5.733,0,0,0,1.552,4.08A5.668,5.668,0,0,0,29.648,0h.32A5.668,5.668,0,0,0,34.1-1.616,5.733,5.733,0,0,0,35.648-5.7v-.128A5.733,5.733,0,0,0,34.1-9.9a5.668,5.668,0,0,0-4.128-1.616h-.32A5.668,5.668,0,0,0,25.52-9.9a5.733,5.733,0,0,0-1.552,4.08Zm4.08-.368a3.445,3.445,0,0,1,.416-1.888,1.525,1.525,0,0,1,1.344-.608,1.564,1.564,0,0,1,1.344.608,3.31,3.31,0,0,1,.416,1.888v.608a3.31,3.31,0,0,1-.416,1.888,1.564,1.564,0,0,1-1.344.608,1.564,1.564,0,0,1-1.344-.608,3.31,3.31,0,0,1-.416-1.888ZM38.528-4.1c0,2.624,1.744,4.1,4.336,4.1h2.048c2.288,0,3.9-1.264,3.9-4.064V-9.376a3.311,3.311,0,0,0-.208-1.408,1.348,1.348,0,0,0-1.232-.736H47.12a1.348,1.348,0,0,0-1.232.736,3.311,3.311,0,0,0-.208,1.408V-5.1A3.311,3.311,0,0,1,45.472-3.7a1.348,1.348,0,0,1-1.232.736h-.256A1.348,1.348,0,0,1,42.752-3.7,3.311,3.311,0,0,1,42.544-5.1V-9.376c0-1.568-.544-2.144-1.84-2.144h-.336c-1.3,0-1.84.576-1.84,2.144ZM59.12-5.456a3.007,3.007,0,0,1-.448,1.936,1.884,1.884,0,0,1-1.472.56H56.032v-5.6H57.2A1.884,1.884,0,0,1,58.672-8a3.007,3.007,0,0,1,.448,1.936ZM53.856-11.52c-1.3,0-1.84.576-1.84,2.144v7.232C52.016-.576,52.56,0,53.856,0h3.616a5.42,5.42,0,0,0,4.112-1.664A5.675,5.675,0,0,0,63.04-5.7v-.128a5.675,5.675,0,0,0-1.456-4.032,5.42,5.42,0,0,0-4.112-1.664Z" transform="translate(161 69)"/>
  </g>
</svg>
