<svg xmlns="http://www.w3.org/2000/svg" width="30.18" height="30.18" viewBox="0 0 30.18 30.18"><path d="M20.913,17.206A3.706,3.706,0,1,1,17.206,13.5,3.706,3.706,0,0,1,20.913,17.206Z" transform="translate(-2.116 -2.116)" fill="none" stroke="#fff" stroke-linecap="round" stroke-linejoin="round" stroke-width="3"/><path d="M24.232,18.8a2.038,2.038,0,0,0,.408,2.249l.074.074a2.472,2.472,0,1,1-3.5,3.5l-.074-.074A2.055,2.055,0,0,0,17.66,26v.21a2.471,2.471,0,1,1-4.942,0V26.1a2.038,2.038,0,0,0-1.334-1.866,2.038,2.038,0,0,0-2.249.408l-.074.074a2.472,2.472,0,1,1-3.5-3.5l.074-.074A2.055,2.055,0,0,0,4.181,17.66h-.21a2.471,2.471,0,1,1,0-4.942h.111a2.038,2.038,0,0,0,1.866-1.334A2.038,2.038,0,0,0,5.54,9.135l-.074-.074a2.472,2.472,0,1,1,3.5-3.5l.074.074a2.038,2.038,0,0,0,2.249.408h.1a2.038,2.038,0,0,0,1.235-1.866v-.21a2.471,2.471,0,1,1,4.942,0v.111A2.055,2.055,0,0,0,21.045,5.54l.074-.074a2.472,2.472,0,1,1,3.5,3.5l-.074.074a2.038,2.038,0,0,0-.408,2.249v.1A2.038,2.038,0,0,0,26,12.619h.21a2.471,2.471,0,1,1,0,4.942H26.1A2.038,2.038,0,0,0,24.232,18.8Z" transform="translate(0 0)" fill="none" stroke="#fff" stroke-linecap="round" stroke-linejoin="round" stroke-width="3"/></svg>